PathFileType	4	(X/Y/Z)	C:/Users/beibeiliu/ov580/test_trc\sequence.4_training_dense_right.trc
DataRate	CameraRate	NumFrames	NumMarkers	Units	OrigDataRate	OrigDataStartFrame	OrigNumFrames
120	120	18	19	mm	120	194	258
Frame#	Time	ThumbCMC			ThumbMCP			ThumbIP			ThumbTip			IndexMCP			IndexPIP			IndexTip			MiddleMCP			MiddlePIP			MiddleTip			RingMCP			RingPIP			RingTip			PinkyMCP			PinkyPIP			PinkyTip			BackHand1			BackHand2			BackHand3	
		X0	Y0	Z0	X1	Y1	Z1	X2	Y2	Z2	X3	Y3	Z3	X4	Y4	Z4	X5	Y5	Z5	X6	Y6	Z6	X7	Y7	Z7	X8	Y8	Z8	X9	Y9	Z9	X10	Y10	Z10	X11	Y11	Z11	X12	Y12	Z12	X13	Y13	Z13	X14	Y14	Z14	X15	Y15	Z15	X16	Y16	Z16	X17	Y17	Z17	X18	Y18	Z18	
193	1.60833	173.536	-18.4281	21.3241	160.102	-10.7268	-12.1953	159.841	-6.49327	-31.1745	167.663	-0.136852	-55.102	179.7	34.6233	-15.7241	174.92	46.3752	-36.699	166.86	53.9706	-61.6005	191.696	18.3547	-37.5704	181.921	-1.97491	-51.4839	181.622	-21.0936	-25.0175	208.163	3.05455	-36.6425	190.401	-19.9522	-38.6159	191.766	-26.5635	-10.0399	223.473	-9.34482	-34.6869	203.528	-28.9171	-33.4179	205.121	-27.9036	-7.4737	225.173	4.20987	8.04193	225.328	-15.9276	32.5899	199.137	-0.0901723	30.0303	
194	1.61667	167.328	-18.4516	18.9192	154.693	-17.0677	-12.9764	155.065	-10.8898	-36.3849	163.314	-9.46578	-56.2429	174.541	31.6398	-27.3664	166.576	38.9389	-47.6665	163.424	40.9476	-69.6713	188.075	12.324	-45.1017	180.496	-13.467	-54.5377	180.085	-27.2373	-25.4148	201.393	-4.0069	-42.0466	190.063	-27.3614	-41.3752	191.175	-32.4728	-13.9256	212.248	-12.6095	-38.9527	202.402	-32.7142	-36.1935	197.882	-28.2587	-11.2916	217.302	3.50295	3.01792	220.257	-10.8793	29.0522	193.811	4.06082	24.0992	
195	1.625	166.821	-18.5532	15.9465	154.828	-20.9507	-14.2611	153.822	-19.3437	-35.0387	162.52	-16.6491	-56.3187	167.34	24.7924	-33.1483	159.122	30.5145	-53.5628	150.979	31.1309	-78.2627	179.829	6.54374	-46.8363	173.925	-20.9466	-55.203	179.697	-33.8415	-27.6939	198.134	-11.4089	-45.189	187.132	-33.392	-41.7111	187.658	-34.4412	-12.3171	210.62	-18.1739	-41.3774	200.199	-38.4528	-35.1635	194.714	-28.8107	-8.16789	210.485	1.13823	3.07773	215.927	-10.7761	25.9084	190.795	1.22777	20.9922	
196	1.63333	163.234	-21.8609	16.7327	151.861	-25.1637	-13.9617	151.521	-24.464	-35.2219	154.13	-24.3422	-58.2359	161.548	20.3741	-36.9664	155.673	22.2665	-57.4978	148.197	23.0774	-80.3058	177.324	-0.561533	-50.2979	172.184	-28.3623	-56.8435	175.129	-38.9379	-24.5075	192.34	-13.138	-45.7528	185.305	-39.8178	-41.6056	186.277	-39.6739	-13.0557	206.531	-19.648	-39.5893	195.289	-42.0075	-31.8466	193.522	-38.3297	-8.53122	211.723	2.9233	-1.60714	213.843	-11.401	27.015	187.112	1.20258	17.6966	
197	1.64167	160.184	-22.8938	17.9568	146.554	-27.1265	-14.5789	145.042	-26.6187	-36.6227	149.89	-29.4764	-54.6906	158.927	14.2131	-38.2688	152.889	16.2641	-63.721	150.084	14.5572	-82.7098	174.209	-1.35838	-48.2174	168.326	-27.8712	-61.8062	171.376	-47.11	-30.2172	188.895	-15.6148	-46.4988	182.706	-43.2118	-43.2912	178.412	-45.0901	-17.9542	209.489	-23.1651	-40.6258	192.549	-44.5208	-34.5509	187.633	-38.746	-12.6551	205.057	0.601627	-3.44256	206.197	-9.37414	27.6182	179.872	3.65431	17.4326	
198	1.65	157.435	-22.2311	17.6175	145.355	-30.2717	-8.14359	140.774	-29.4599	-33.6644	140.566	-32.1761	-57.8869	153.751	10.263	-38.274	150.561	9.63803	-65.4695	142.057	7.68391	-88.5622	175.685	-5.12392	-52.6669	163.744	-30.5807	-66.082	163.916	-55.6494	-45.5429	190.18	-17.4321	-47.7281	178.756	-44.6653	-50.1904	173.011	-52.2688	-28.2378	205.228	-25.1773	-42.0784	191.607	-47.6798	-38.5856	183.023	-48.8986	-17.8728	201.607	-1.03369	-1.87523	201.653	-4.33704	22.9981	179.137	1.52717	15.6261	
199	1.65833	152.609	-20.7998	14.6543	137.425	-29.5778	-12.1394	136.779	-29.1312	-34.4718	135.042	-33.1809	-53.4192	151.535	5.0276	-45.1379	142.559	4.11475	-63.7924	140.43	-0.329733	-86.5408	170.325	-5.80582	-54.7524	162.653	-25.633	-71.6727	163.173	-59.4037	-64.0076	187.49	-17.772	-49.5469	175.377	-41.8042	-58.2662	170.643	-62.4233	-40.2288	205.047	-24.9059	-40.3285	189.813	-48.4401	-45.9045	177.058	-55.8296	-27.5297	198.985	-0.785479	-5.45756	198.564	-5.807	25.0866	169.709	3.58077	15.0717	
200	1.66667	147.963	-23.2708	17.6042	134.598	-32.4903	-5.37975	129.533	-31.5033	-31.7911	124.737	-35.2859	-49.669	144.859	0.350102	-43.2372	139.943	-2.80144	-67.7862	136.084	-9.00572	-88.5472	168.133	-8.88985	-55.7467	163.653	-24.3429	-75.6232	161.263	-54.0698	-84.0793	185.734	-19.055	-50.9218	178.749	-42.3598	-64.5169	170.38	-67.8842	-59.6417	204.199	-25.8591	-40.7957	189.814	-46.572	-51.7948	176.532	-63.528	-43.4365	189.631	-0.479281	-3.14549	196.217	-6.1288	26.401	167.885	1.62203	12.5645	
201	1.675	142.05	-23.772	21.1708	127.552	-31.2574	-6.32675	122.863	-32.7793	-25.2583	117.255	-36.1318	-45.8445	141.532	-4.901	-43.9104	138.09	-9.8197	-69.1707	132.185	-17.2018	-88.8346	166.779	-11.4425	-54.9865	157.849	-22.68	-77.445	157.806	-47.885	-96.8747	185.199	-20.5368	-48.7418	181.396	-37.9114	-67.582	169.26	-59.7071	-75.9084	201.113	-26.7485	-38.5804	196.089	-42.7072	-54.9997	182.433	-63.0825	-59.0824	191.094	-4.31341	-4.53009	188.801	-4.31031	23.1263	161.081	-2.00269	13.8425	
202	1.68333	140.048	-23.1926	18.186	125.242	-31.8995	-2.98356	117.278	-32.4524	-26.5707	114.135	-34.827	-44.8592	137.214	-9.82825	-48.643	135.131	-17.4543	-69.4704	131.35	-25.0103	-90.3471	161.04	-14.2404	-52.9289	159.51	-24.613	-79.1334	154.798	-39.2585	-98.5479	179.022	-22.6094	-51.1567	177.976	-37.6859	-71.6209	172.578	-52.2696	-84.2113	200.826	-30.6242	-39.7625	195.158	-41.4578	-56.9544	191.658	-57.9265	-70.7743	187.432	-5.66468	-2.44367	189.376	-8.09108	20.9808	160.655	-2.71475	10.9249	
203	1.69167	134.227	-21.6518	17.8097	119.214	-30.623	-1.27444	115.058	-32.6816	-25.0505	106.413	-35.7835	-42.6357	135.959	-15.4357	-49.9559	130.617	-21.9279	-68.5567	124.841	-31.0859	-92.0514	160.612	-19.0541	-58.191	157.199	-27.3374	-78.0625	157.197	-39.2547	-102.034	180.358	-26.7403	-50.9682	175.876	-37.3989	-73.6971	173.768	-49.8112	-90.7135	197.283	-33.128	-42.0944	195.112	-42.6135	-58.5526	196.456	-50.1137	-73.2602	184.291	-9.39165	-5.04899	189.396	-9.03487	23.5099	158.234	-1.72339	7.6428	
204	1.7	135.617	-24.1634	21.2705	120.764	-31.7126	-1.18947	110.229	-33.4225	-22.2242	102.639	-37.792	-36.9699	137.56	-19.9522	-51.1693	129.06	-27.931	-69.7251	126.647	-36.9919	-92.1816	160.914	-24.3892	-56.909	158.871	-31.8936	-77.9096	153.37	-38.9235	-101.946	176.794	-30.5319	-53.0208	177.885	-39.9211	-73.5775	170.93	-46.3878	-91.8018	195.745	-36.8071	-37.857	199.725	-45.1715	-55.7038	199.506	-47.0729	-72.307	182.659	-16.1849	-4.72346	185.936	-11.9691	19.5548	157.801	-6.00617	7.99384	
205	1.70833	134.311	-26.0221	20.4229	115.312	-32.9789	3.35241	108.153	-36.08	-18.6825	101.674	-39.347	-36.318	136.053	-25.8273	-49.9028	128.638	-33.6872	-69.7318	124.901	-39.5759	-85.3893	160.425	-28.8497	-52.3896	157.732	-35.9399	-75.2686	155.848	-43.0021	-103.618	178.929	-34.6987	-51.1536	174.952	-40.4914	-68.4413	170.961	-46.7841	-88.3223	192.819	-40.5829	-33.1934	197.785	-45.6352	-52.1366	201.579	-46.4957	-71.3686	184.286	-18.825	-5.60378	182.155	-13.386	22.0285	158.426	-8.24914	6.97273	
206	1.71667	133.753	-26.7646	20.5439	115.905	-35.6129	1.16113	105.662	-38.9613	-20.2504	97.8045	-42.5269	-34.3448	136.088	-30.0554	-48.5796	128.297	-38.2355	-65.7911	124.064	-45.2448	-86.7138	159.392	-32.2289	-51.0591	158.311	-39.856	-73.8054	154.182	-45.8062	-99.8175	178.118	-38.0645	-45.4094	177.082	-44.9124	-70.3042	175.901	-49.6572	-90.9957	193.6	-44.8086	-32.1271	196.689	-48.4869	-52.6323	202.926	-48.7883	-66.7463	179.081	-22.0304	-4.64353	184.132	-18.2511	18.858	158.389	-13.532	6.51808	
207	1.725	134.322	-30.2555	24.0378	118.633	-38.4558	2.10866	104.602	-40.8281	-17.7072	96.2724	-45.4107	-30.5204	133.163	-34.083	-47.1603	129.566	-42.432	-65.8494	123.123	-49.7625	-83.1756	157.762	-38.3207	-55.2366	157.55	-43.9797	-72.5647	153.463	-49.3823	-99.7032	177.636	-42.4197	-43.685	177.769	-48.7635	-69.9979	177.189	-51.6951	-85.8624	193.178	-48.7339	-30.2463	202.252	-53.3803	-49.5911	204.814	-51.0859	-64.8123	179.987	-24.6527	-3.92105	186.006	-18.9167	22.8542	157.996	-14.2993	9.45584	
208	1.73333	134.559	-32.4802	23.4415	117.101	-40.5902	6.37232	107.281	-43.4192	-16.5301	95.0522	-45.9873	-32.0464	133.692	-36.9338	-44.2066	127.979	-44.9446	-61.0861	121.877	-53.4941	-86.6691	157.549	-41.1608	-53.654	159.859	-47.4228	-72.4687	158.066	-52.5559	-96.512	176.749	-45.0907	-44.024	176.941	-51.3557	-62.7302	179.835	-54.9523	-84.4895	196.39	-52.2659	-33.85	203.536	-56.2699	-44.1874	207.677	-53.5301	-61.2228	179.242	-29.3107	-2.95574	183.893	-21.0559	19.5409	158.827	-18.9307	5.4323	
209	1.74167	134.818	-34.2294	25.6349	119.656	-42.8027	5.11628	110.177	-46.3085	-13.2175	97.2422	-49.4679	-30.4023	136.57	-40.2574	-41.3123	131.603	-49.919	-62.5903	126.708	-55.9424	-81.2005	162.401	-44.8607	-49.4236	162.249	-51.5498	-72.0461	157.36	-56.4937	-95.9656	179.74	-48.4991	-43.5901	183.418	-55.8396	-67.4665	184.712	-58.5767	-87.4025	198.365	-54.8407	-31.2846	205.458	-58.4747	-47.7597	212.539	-55.8091	-59.5391	185.224	-33.2298	-4.18246	187.767	-26.0184	21.4503	162.512	-22.7816	7.28563	
210	1.75	142.416	-36.8973	26.6745	124.957	-44.8318	4.45154	113.612	-49.0372	-14.5116	101.803	-52.6297	-24.3598	138.346	-43.5458	-43.4122	135.392	-51.2951	-60.1875	125.67	-58.1702	-83.6861	165.486	-48.4372	-52.7086	160.299	-53.1825	-71.5574	161.932	-59.264	-93.2421	183.924	-50.7895	-40.1582	183.439	-57.3683	-63.9215	184.694	-59.6087	-82.8837	201.632	-56.7694	-25.0707	207.341	-61.0922	-43.3748	215.343	-59.0226	-58.1916	183.771	-34.1172	-0.676928	188.426	-24.4384	24.863	162.76	-22.3703	10.2394	
